<svg height="24" viewBox="0 0 24 24" width="24" xmlns="http://www.w3.org/2000/svg"><path d="m11.2 6.4c.3733333-.49777778 1.0951111-.53096296 1.5149037-.09955556l.0850963.09955556 6 8c.4719532.629271.0648139 1.5150577-.6898797 1.5942836l-.1101203.0057164h-3v5c0 .4733869-.3289337.8699473-.7707092.9735893l-.1126697.019683-.1166211.0067277h-4c-.51283584 0-.93550716-.3860402-.99327227-.8833789l-.00672773-.1166211v-5h-3c-.74725928 0-1.20369431-.7736081-.91357746-1.4093691l.0520784-.0991048.06149906-.0915261zm.8 2.267-4 5.333h2c.4733869 0 .8699473.3289337.9735893.7707092l.019683.1126697.0067277.1166211v5h2v-5c0-.4733869.3289337-.8699473.7707092-.9735893l.1126697-.019683.1166211-.0067277h2zm9-6.667c.5522847 0 1 .44771525 1 1s-.4477153 1-1 1h-18c-.55228475 0-1-.44771525-1-1s.44771525-1 1-1z" fill-rule="evenodd"/></svg>